<?xml version="1.0" encoding="utf-8"?>
<!-- Generator: Adobe Illustrator 15.0.2, SVG Export Plug-In . SVG Version: 6.00 Build 0)  -->
<!DOCTYPE svg PUBLIC "-//W3C//DTD SVG 1.1//EN" "http://www.w3.org/Graphics/SVG/1.1/DTD/svg11.dtd">
<svg version="1.1" id="Layer_1" xmlns="http://www.w3.org/2000/svg" xmlns:xlink="http://www.w3.org/1999/xlink" x="0px" y="0px"
	 width="100px" height="100px" viewBox="0 0 100 100" enable-background="new 0 0 100 100" xml:space="preserve">
<path fill="#212121" d="M96.783,80.58L53.735,13.775c-1.645-2.568-5.888-2.568-7.563,0L2.718,81.229
	c-0.893,1.401-0.954,3.149-0.172,4.59c0.782,1.44,2.294,2.334,3.939,2.334h86.951c0.019,0,0.078,0,0.078,0
	c2.479,0,4.487-2.01,4.487-4.486C98.001,82.469,97.535,81.373,96.783,80.58z M49.939,24.517l8.548,13.229L31.633,79.159H14.72
	L49.939,24.517z M62.832,79.159L52.619,63.321l11.189-17.281l21.36,33.119H62.832z"/>
<polygon fill="#03A9F4" points="49.939,24.517 58.487,37.746 31.633,79.159 14.72,79.159 "/>
<polygon fill="#03A9F4" points="62.832,79.159 52.619,63.321 63.809,46.04 85.169,79.159 "/>
</svg>
